<svg id="Calque_1" data-name="Calque 1" xmlns="http://www.w3.org/2000/svg" viewBox="0 0 458.17 500"><defs><style>.cls-1{fill:#efefef;}</style></defs><title>logo</title><path class="cls-1" d="M425.68,188.7c-.34-1.59.93-2.52,1.61-3.63a58.41,58.41,0,0,0-5.15-67.9c-16.21-19.27-42.49-25.72-66.39-16.1-3.5,1.42-4.44.8-5.8-2.49-8.16-19.89-22.16-32.95-43.65-37.79-24.52-5.48-40-20.89-47-44.95-.85-2.93-2-5.78-3.4-9.84-2.08,6.29-3.44,11.41-5.41,16.28-7.72,19-20.81,32.77-41.26,37.29-23.06,5.09-39,17.82-47.66,39.72-1,2.54-1.9,3.69-4.54,2.09-4.46-2.69-9.58-3.39-14.52-4-23-3.1-42.19,4.8-55.46,23.31-14,19.56-14.85,41.08-3.42,62.7,1,1.81,2.91,3.24,2.6,5.66-33.3,2.28-56.67,27.09-59,56.28-1.25,15.46,1.48,30,10.56,42.83,11.85,16.72,28.1,26,49.19,27.1-1.23,2.14-2.14,3.63-3,5.15-12.81,22.75-10.62,48.47,8.38,70.23,13.78,15.77,43,21.29,62,13.47,3.22-1.33,6.23-2,8.37,3.14,8.48,20.56,24.2,32.24,45.91,37.22,22.94,5.26,36.92,20.78,43.62,42.89a43.41,43.41,0,0,0,4.06,10.25c3.2-9.48,5.28-18.37,10.22-26.15,7.53-11.87,17.28-21.32,31-25.14,9.62-2.69,19.21-5,27.78-10.38,5.9-3.69,6.6-3.52,8.21,3.63,2,8.73,3.54,17.56,7,25.88,5.84,14.08,12.62,27.47,27.6,34,4.66,2,10,2.64,14.56,4.8a18.7,18.7,0,0,0,14.6.57,17.92,17.92,0,0,1,10.18-1c7.22,1.49,8.89.11,8.68-7.26-.06-2-.17-4.09-.28-6.23-3.33.67-6.5.53-5.09,5.17.82,2.66-1.22,3.76-3.5,2.93-4.25-1.53-8.28-3.18-11.18,2.14A2.22,2.22,0,0,1,394,501c-2.67-2.47-5.2-5.5-5.76-8.84-.41-2.49,2.38-4.69,5.36-5.5,3.39-.92,7.16-1.24,9.67.9,2.34,2,4.8,1.73,7.08,1.94,5.85.5,10.38-4.79,10.59-11.67.21-6.4-2.47-8.78-9.57-8.92-6.61-.13-12.9,1.6-19.28,2.91-8.36,1.73-11.82-.36-13.72-8.54a43.9,43.9,0,0,1-1.11-7c-1-15,.93-30,.84-45,0-2.53,1.41-2.31,3.18-3,6.36-2.26,13.13-2.41,19.47-5.29,23.71-10.83,37.63-34.55,34.63-60.45a59.25,59.25,0,0,0-10.59-27.39c35.77-2.54,57.93-28.54,60.17-58.53C487,228.54,470.63,194,425.68,188.7ZM395.77,475.83c4-1.36,7.84-2.92,12.08-1.73,2.42.67,4.59,2.21,4.42,4.89s-2.54,3.78-5.06,4.18c-2.83.44-5.48-.51-8.13-1.27-9-2.6-12.9-.17-14.37,9.07-1.26,7.76-1.78,8.07-9.4,5.4a35.15,35.15,0,0,1-19.15-15c-12.11-19.66-17.21-41.47-19.42-64-1.68-17.09-2.33-34.28-3.51-51.42-.24-3.23,0-5.26,4.07-6.23,7.81-1.85,13.41-7.27,18.15-13.55.68-.9,1.9-1.79,1.31-3.06-.73-1.58-2.42-1.12-3.64-.93-7.4,1.17-14.73,1.92-22.24.13-10.51-2.51-15.22-7.28-16.64-18a59.65,59.65,0,0,1,.17-18.91c2.48-12.79-2-23.66-8.11-34.3-1.54-2.69-3.25-5.31-5.11-8.34-2.44,2.76-1.3,4.89-.28,6.91,1.16,2.29,2.47,4.51,3.77,6.71,4.68,7.84,7.39,15.8,5.26,25.33-1.49,6.65-1.17,13.77-.35,20.66,2.38,19.74,11,26.17,30,26.05,1.93,0,3.85-.24,6-.37-5.41,7.53-18.2,10.45-27.45,6.28-12.57-5.66-20-15.82-23.68-28.72-1.89-6.58,1.19-10,8.1-10.59,1.5-.11,4.26,2,4.55-1.62.14-1.88.66-4.26-1.91-5-2.41-.68-4.77-3.18-7.48-.68-.57.51-1,1.14-1.55,1.7-1,1-.7,3.58-2.95,3-1.76-.49-1.62-2.58-2.11-4a85.82,85.82,0,0,1-3.8-20.29c-.17-2-.48-3.93-.54-5.89-.25-7.94-2.58-14.09-11.59-15.9-3.58-.73-7-2.73-10.27-4.49-12.49-6.72-15.92-17.53-9.79-30.32.41-.87,1.09-1.68.44-2.72-13.71,7.21-12.14,21.77-4.72,29.56,7.18,7.53,16.66,11,25.88,14.78,3.95,1.62,6.1,4,6.91,8,1.27,6.37.18,12.63-1,18.81-1,5.53-.65,10.76,2.52,15.36,2.79,4,.33,6.7-1.86,9.38-3.55,4.33-8.18,4.93-13.41,3.41-3.93-1.16-4.18-4-4.47-7.32-.79-9.07-1.82-18.1-2.91-28.63-3.55,6.09-2.43,11.45-3.19,16.41a67.52,67.52,0,0,0,5.09,38.81c.51,1.11,2.46,2.32.85,4.16s-3,.68-4.7.41c-10-1.51-18.75-5.88-27.71-10.4-11-5.58-22.95-9.46-34.53-13.95-3.14-1.22-4.19-2-1.67-5.45a60.49,60.49,0,0,0,10-20.62,14.12,14.12,0,0,0,0-8.07c-7,10.21-12.56,20-20.05,28.36-9.55-7.12-18.94-14.31-28.58-21.21-2.76-2-3.14-3.87-2.17-6.91,2.45-7.72,7.15-14,12.2-20.11,1.29-1.56,3.49-2.47,3.6-4.88-10.68,4.78-20.14,10.84-24.41,23.15a82.67,82.67,0,0,1-15.5-14.21c-7.45-8.66-12.22-18.9-16.06-29.47-3.77-10.36-1.15-16.94,8.36-22.13,5.23-2.85,8-7,10.09-12.42,6.49-16.64,17.64-28.94,34.79-35.28,7.83-2.9,16.08-3.44,24.13-5,6.89-1.33,13.72-3.5,20.73-3.39,15.64.25,31.4.71,46,7.53,3.57,1.66,6.28,1.63,8.89-1.3a6.44,6.44,0,0,1,1.43-1.07c25.85-16.92,30.27-12.93,54.27,3.62a8.16,8.16,0,0,1,3,3.61c3.17,8.69,10.43,12.48,18.26,15.61,11.24,4.49,16.1,13.54,18.59,24.74a35.54,35.54,0,0,1,.24,12.8c-.53,4-2,3.94-4.77,3.39-3.47-.67-3.51-.67-2.67,2.17.37,1.3-.65,1.73-1.37,2.27-1.38,1.06-2.86,2-4.3,3,2.81,4,5.77.43,8.61.41.39-.23,1-.74,1.17-.63.71.56.28,1.16-.14,1.71-4.5,8.16-4.36,16.25-1.86,25.35,10.08,36.59,10.89,74.22,11,111.86.07,24.09-1,48.2.81,72.28a34.72,34.72,0,0,0,.27,3.53C374.31,476.81,380.39,481.16,395.77,475.83ZM374.51,321c4.22,8.89,11.61,14.14,19.74,18.91,6.8,4,14.47,5,21.93,7.26-7,8.46-20,8.46-27.35,5.21a51.63,51.63,0,0,1-11-6.88c-2.85-2.22-4-4.93-4.43-8.54-1.67-13.19-1.21-26.71-6.14-40.05a21.82,21.82,0,0,1,12.84,6.64c4.63,4.6-1.17,7.67-3.68,9.21C372.28,315.34,372.79,317.33,374.51,321Zm-8.33-31.89c-2.41-10-9.12-19-4.19-30a210.89,210.89,0,0,0,9.51-26.63c1.78-6.05,1.16-11.47-2.53-16.83a192.94,192.94,0,0,0-24.21-28.24c-4.34-4.27-8.86-8.37-13.75-13,21.16-11.16,39.11-5.12,46.36,14.89a74.92,74.92,0,0,1,4.09,31.19c-1.64,22.44-6.39,44.31-12.75,65.85A3.49,3.49,0,0,1,366.18,289.09ZM423.7,357.2c-2.63,22.3-21.34,36.31-39.44,39.18-4.1.66-6.53.47-6.29-5,.54-12.2-1.36-24.34-2.54-37.1,3.46-.48,5.76,1.36,8.18,2.33,12.19,4.79,23.79,4.91,34.68-3.33,1.7-1.28,3.87-3.06,5.8-1.46C425.76,353.19,423.9,355.37,423.7,357.2ZM461,287.11c-13.3,14.64-30.16,19.89-49.75,15.66-5.49-1.19-10.88-3.09-17.36-3.38,12.7,13.65,29.15,23.75,30.51,44.73-7.92-2.82-15.5-5.72-23.19-8.24s-13.48-7.93-18.92-13.76c-1.86-2-1.6-2.82.47-4.48,12-9.64,12-11.38.69-21.53-10-9-10-9-5.15-21.3a176.72,176.72,0,0,0,11.07-41.61c2.68-20.2-2.25-38.83-14.66-54.6-8.59-10.92-19-20.74-35.09-19.44-4.93.39-9.46,1.58-12.88,5.11-2.08,2.16-3.4,2.45-5.77.53-8.64-7-18-8.12-28.25-3.47-5,2.26-10.71,3.17-15.5,5.8-7.07,3.86-13.66,3.18-20.76.52-37.66-14.07-72.81-7.08-106.19,13.2a57.11,57.11,0,0,0-22.32,25.51c-3.58,7.76-7.86,14.81-16.44,18.3-3.88,1.59-5.08,5.72-5.86,9.64a46.86,46.86,0,0,0,5.83,33.77,81,81,0,0,0,23.24,25c18.45,13.28,37.21,26,56.66,37.85a356.29,356.29,0,0,0,43.35,22.44c10.49,4.55,21.08,8.48,32.82,7.94,6.91-.3,9.48-4,6.91-10.46-1.52-3.85-2.93-7.75-4.59-11.54-1.62-3.64-.13-4.29,3.26-4.25,5.63.08,11.48,1.16,16.6-3,1.58,9,7.78,13.94,14,18.78a63.71,63.71,0,0,0,18.69,10c2.46.84,3.11,1.8,3.23,3.89.69,12.39,3.29,24.64,2.95,37.15a29.75,29.75,0,0,0,1.67,9.1c1.45,5-.73,8.13-4.38,11.12-6.37,5.25-13.41,9.23-21.47,10.83-20.28,4-35.79,14.74-46.79,32.13-.4.61-.95,1.15-1.76,2.14-1.32-1.89-2.43-3.43-3.47-5-10.27-15.55-24.84-24.82-42.84-28.72-17.55-3.82-29.48-14.11-37-30.2-3.1-6.57-1.74-13.48-2.52-20.87-3.61,2.11-7,3.55-9.76,5.8-15.39,12.74-44.58,12.13-61.81-7.91C83,362.32,83.15,335,99,318c5.89-6.31,11.8-12.6,17.56-18.73-4.35.89-9.45,1.76-14.46,3-20.81,5.21-38.62-.32-52.25-16.44-14-16.56-16-35.94-7.5-55.61a50.78,50.78,0,0,1,58.47-28.93c4.66,1.11,9.22,3.12,14.1,3.12.42,0,.84,0,1.27,0h0c.39,0,.79-.08,1.2-.15-5.29-5.21-10.57-10.46-15.91-15.61A47.11,47.11,0,0,1,144,108.55c9.47,2.06,17.59,7.11,25.09,13.26,1.93-2.5,1.09-5,1.09-7.19,0-18.74,16.61-39.45,35-42.69A72.22,72.22,0,0,0,243.8,52.31c4.58-4.4,8.18-9.6,11.81-15.24,4.68,4.73,7.54,10.57,12.16,15.08a68.68,68.68,0,0,0,34.72,18.63c16.34,3.45,28.06,12.77,35.68,27.62,2.9,5.68,2.76,11.54,2.73,17.52,0,1.72-.62,3.82.89,5,2,1.55,3.21-.76,4.43-1.71,9.15-7.07,19.2-11.68,31-11.75a47.34,47.34,0,0,1,44,28.85,46.43,46.43,0,0,1-10.42,51.84c-5.45,5.38-10.61,11.11-17.26,15.87,2.48,1.63,4.65.3,6.71-.13,10-2,19.84-5.28,30.38-3.33,20,3.71,34.08,14.76,40.56,33.95S474.76,271.89,461,287.11Z" transform="translate(-26.91 -6)"/><path class="cls-1" d="M294.73,379.73c-.4,2.4-1.41,4.6-4.22,4.68s-4.28-2-4.31-4.56,1.22-4.63,4.12-4.71S294.27,377.15,294.73,379.73Z" transform="translate(-26.91 -6)"/><path class="cls-1" d="M223.94,383.9c-.19,2.75-1.2,4.9-4,5.09s-4.26-1.71-4.43-4.39,1.07-4.68,3.88-4.9S223.45,381.49,223.94,383.9Z" transform="translate(-26.91 -6)"/><path class="cls-1" d="M409.29,267.6c-.06,2.65-1.4,4.74-4.28,4.56-2.54-.16-4.34-1.84-4-4.59.27-2.11.13-5,3.41-4.76C407.89,262.78,409.34,264.63,409.29,267.6Z" transform="translate(-26.91 -6)"/><path class="cls-1" d="M358.47,143.86a3.65,3.65,0,0,1-3.61,3.95c-2.92.22-4.28-1.67-4.41-4.39-.15-3,.94-5.95,4.09-5.93C357.51,137.5,357.92,140.79,358.47,143.86Z" transform="translate(-26.91 -6)"/><path class="cls-1" d="M276.2,111.67c0,3.9-2,6.7-5.85,6.83-4.25.13-6.15-2.88-6.26-7.4.25-3.33,1.7-6.31,5.83-6.37C274.31,104.68,276.17,107.58,276.2,111.67Z" transform="translate(-26.91 -6)"/><path class="cls-1" d="M152.75,143.5c-2.37.17-4.22-1.81-4.41-4.54s1.13-4.82,3.8-5.07c2.84-.28,4.24,1.63,4.28,4.77A4,4,0,0,1,152.75,143.5Z" transform="translate(-26.91 -6)"/><path class="cls-1" d="M281.27,252.76c-1.62,2-5,1.07-6.35.16-3.95-2.61-9.07-3.69-12.13-9,4-.78,7.64-1.68,11.33-2.17,3.43-.44,6.5-.13,4.77,4.82a2.47,2.47,0,0,0,.42,2.11C280.59,249.86,282.32,251.45,281.27,252.76Z" transform="translate(-26.91 -6)"/><path class="cls-1" d="M249.13,214.19c.25,1.14,1.76,2.75-.13,3.61s-2.74-1-3.52-2.28a22.83,22.83,0,0,1-2.8-17.07c2.36-10.35-1-14.7-11.72-14.92-7.94-.16-15.5,2.13-23.2,4a142.82,142.82,0,0,0-23.17,7.52c-3.44,1.51-6.64,3.06-10.45,2.83-.46-2.35,1.08-3.29,2.27-4.09,18.5-12.76,38.82-19.32,61.35-16.46,11.83,1.53,14.78,7.06,11.59,18.72A36.53,36.53,0,0,0,249.13,214.19Z" transform="translate(-26.91 -6)"/><path class="cls-1" d="M176.16,231.56c-5.63,7.32-12.53,9.09-19.64,9.43-9.46.42-18,2.41-24.28,10.14-.61.75-1.29,1.68-2.4.76s-.11-1.55.23-2.46c3.39-8.84,11-12.36,19.22-13.28A254.44,254.44,0,0,0,176.16,231.56Z" transform="translate(-26.91 -6)"/><path class="cls-1" d="M92,282.16c.14,2.65-1.19,4.73-3.9,4.93s-4.19-1.77-4.31-4.43,1-4.52,4-5C90.43,277.82,91.79,279.55,92,282.16Z" transform="translate(-26.91 -6)"/><path class="cls-1" d="M148.58,351.84c0,3.88-1.82,7-6.36,6.89-4.21-.12-5.32-3.37-6-6.59.65-3.8,1.86-7,6-7.16C146.69,344.77,148.58,347.94,148.58,351.84Z" transform="translate(-26.91 -6)"/></svg>