<svg xmlns="http://www.w3.org/2000/svg" viewBox="0 0 256 256"><defs><style>.cls-1{fill:#efefef;}</style></defs><title>ui_mess</title><g id="Calque_8" data-name="Calque 8"><path class="cls-1" d="M58.26,116.25l52.89,5.17c1.44.14,3,.77,4.28.37,2-.63,5.09-.27,4.71-4-.3-2.79-1.57-3.76-4.48-4-14-1.12-27.88-2.67-41.83-3.83-6.67-.56-13.24-2.08-20-1.75a8.9,8.9,0,0,1-5.35-1.81c-2.19-1.68-6.17-2.77-4.81-6.62,1.3-3.69,4.55-1.1,6.74-.95,20.12,1.3,40.25,2.74,60.34,4.48,3.28.28,5.67-.15,6.15-3.29.56-3.63-2.74-4.58-5.39-4.86-6.74-.71-13.52-1-20.29-1.44C73.51,92.48,55.82,91,38.11,89.93c-7.57-.45-12-4.55-15.45-10.68-2.15-3.81-.24-4.57,2.91-4.27,17.66,1.72,35.3,3.62,53,5.32,11.38,1.09,22.77,2.46,34.18,2.79,13.17.37,21.06,7.54,26.69,18.37a80.85,80.85,0,0,1,5,10.21c1.06,3,3.19,3.6,5.4,2.8s2.32-2.78,1.77-5.27c-3.71-16.94-18.27-31.77-35.18-33.57-32.52-3.47-65.13-6.09-97.7-9.12-3.11-.29-6.05-.5-7.93,2.62-1.79,3,.06,5.21,1.43,7.64C16.86,85,21.31,93.44,31.42,96.48a4.48,4.48,0,0,1,3.39,4c1,6.62,5.45,11.21,11.39,13.62a8.57,8.57,0,0,1,5.06,5.09c3.81,9.2,10.44,14.19,20.48,14.63,8.91.39,17.81,1,26.73,1.34,3.68.12,4.52.92,3.68,4.93-1.72,8.17-4.45,16.17-4.14,24.77.58,16.52,10.19,25.05,26.61,23.65,8.76-.75,17.16-3.13,25.37-5.69,14-4.37,27.25-1.3,40.68,1.84s27,5.82,40.94,4.7c4.26-.34,7.78-1.58,10.61-4.78,6.78-7.68,4.16-17.84-5.66-19.22-21.82-3.08-39.23-15-56.62-27-7.67-5.28-16.42-9.14-22.61-16.6-1.72-2.07-4.83-1-7.35-.45-12.8,2.61-25.76,5.57-38.59,6.5-14,1-28.3-.53-42.37-2.51C64.07,124.64,61.12,121.67,58.26,116.25ZM112,135.85c13-2.25,25.49-4.29,37.89-6.63a5.55,5.55,0,0,1,5.63,1.95c2,2.29-.9,3.34-1.87,4.66-3.91,5.29-9,9.66-11.56,16-2.94,7.3-5.76,14.57-4.93,22.67a3.63,3.63,0,0,1-2.92,4.28c-3.55,1-2.37-2.34-3-3.55-1.39-2.8-2-6-3-9C124.73,155.32,118.34,145.85,112,135.85ZM144.74,171c.23-6.59,4.34-16.12,10.48-24.83,7-9.92,7-9.93,16.46-3.26,2.6,1.83,6.59,3.23,7.41,5.68,1.19,3.54-3.79,4.95-5.55,7.71-.69,1.08-1.71,2.15-1.89,3.34-1.86,11.71-10.07,14.6-20.27,14.88-.39,0-.75.43-1.16.5C146.56,175.72,143.61,175.51,144.74,171Zm52.43,7.14c-6.77-1.49-13.56-2.91-20.3-4.52-1.6-.39-1.73-1.4-1.3-3.35,1.49-6.63,6.76-10.67,10.13-16,.89-1.41,2.62-1.48,4.06-.64,4.56,2.67,9,5.48,13.61,8.11,1.39.8,2.77,1.55,1.16,3.08-2.88,2.76-2.77,6.58-3.68,10C200.24,177.12,199.69,178.36,197.17,178.17ZM105.66,165c.54-4.82,1-9.64,1.67-14.44.16-1.2.87-2.6,2.23-2.53a3.55,3.55,0,0,1,2.42,1.81c4.51,9,8.9,18,12,27.62.94,2.93.1,3.48-2.5,3.66C112.75,181.74,105.5,176,105.66,165ZM224,182.13c-4.89-.25-8.54-.15-12.08-.7-4.65-.72-4.11-4.79-3-7.39s1.47-8,6.21-6.09c5.92,2.43,12.14,3.24,18.1,5.17,1.53.5,5.13-.75,4.6,2.76-.4,2.67-1.59,5.5-5,5.82S226,182,224,182.13Z"/></g></svg>