<svg xmlns="http://www.w3.org/2000/svg" viewBox="0 0 256 256"><defs><style>.cls-1{fill:#efefef;}</style></defs><title>ui_param</title><g id="Calque_6" data-name="Calque 6"><path class="cls-1" d="M10,127.69C10.56,61.74,63.77,9.84,128.22,10A118,118,0,1,1,127.6,246C61.56,245.61,10,192,10,127.69ZM127.87,235.43A107.64,107.64,0,0,0,235.45,128.22c.4-58.87-47.89-107.52-107.13-107.6A107.2,107.2,0,0,0,20.68,127.9C20.59,187.06,68.11,234.94,127.87,235.43Z"/><path class="cls-1" d="M128.15,36.27c50.83.18,92,41.49,91.61,92-.37,50.86-41.34,91.66-91.84,91.48-50.84-.18-92-41.49-91.61-92C36.69,76.88,77.63,36.1,128.15,36.27Zm54.56,99.32c8,0,16,0,24.06,0,1.6,0,2.31-.36,2.21-2.11-.21-3.48-.33-7-.35-10.47,0-2-.64-2.71-2.8-2.69-13.73.11-27.46.09-41.2,0-10.37,0-8.62,1.17-14.34-8.15a7.09,7.09,0,0,1-.07-8.24c7.84-13.36,15.49-26.84,23.27-40.24.9-1.54.93-2.35-.75-3.32-3-1.7-5.89-3.41-8.89-5-1.81-1-2.6-.49-3.54,1.15q-10.16,17.88-20.45,35.68c-5.56,9.62-3.61,8.49-14.78,8.63a6.93,6.93,0,0,1-6.77-4C110.67,83.44,102.89,70,95.23,56.57c-.93-1.64-1.8-2.25-3.56-1.21-2.93,1.73-5.88,3.42-8.9,5-1.71.9-1.63,1.81-.74,3.35,7.53,13,14.82,26.06,22.55,38.9,2.39,4,2.49,7,0,10.93-4.79,7.4-3.48,6.85-12.26,6.85-14.24,0-28.49,0-42.73,0-1.86,0-2.48.45-2.54,2.38-.1,3.33,0,6.65,0,10,0,2.61,1,2.95,3.32,2.93q19.83-.15,39.66,0c11.33,0,9.19-1.43,15.33,8.64a6.44,6.44,0,0,1,0,7.36c-7.87,13.44-15.61,27-23.46,40.42-.85,1.46-1,2.25.65,3.19,3,1.74,6,3.58,9,5.26,2,1.12,2.83.51,3.87-1.31,7.68-13.45,15.51-26.83,23.21-40.28a5.91,5.91,0,0,1,5.76-3.41,59.88,59.88,0,0,0,6.14,0c3.18-.22,5.19,1.08,6.78,3.89,7.57,13.32,15.35,26.53,22.92,39.86,1.18,2.08,2.25,2.33,4.15,1.19,2.76-1.68,5.56-3.31,8.41-4.84,1.82-1,2-1.95.9-3.76-7.88-13.44-15.62-27-23.47-40.42-1.4-2.39-1.56-4.56,0-6.9a59.51,59.51,0,0,0,3.25-5.49c1.29-2.51,3.23-3.47,6-3.44C167.19,135.65,175,135.59,182.71,135.59ZM128,209.32c4-.33,8-.53,12-1a65.55,65.55,0,0,0,9.95-2.22c1.27-.37,1.92-.6,1-2.11-7.06-12.14-14-24.33-21.08-36.49-1.24-2.14-2.66-2.1-3.93.09-7,12.09-13.93,24.2-21,36.26-.93,1.6-.34,1.87,1.08,2.28A88.35,88.35,0,0,0,128,209.32ZM151.66,50.37a80.42,80.42,0,0,0-45.27-.54c-1.91.53-1.89,1.1-1,2.66,6.82,11.7,13.54,23.45,20.3,35.18,1.88,3.25,3,3.28,4.86.09q10.08-17.48,20.13-35A3.82,3.82,0,0,0,151.66,50.37ZM72,109.84c6.82,0,13.64,0,20.46,0,2.88,0,3.46-1,2.07-3.37-6.91-12-13.86-24-20.75-36.07C73,69,72.57,68.71,71.28,70a81.48,81.48,0,0,0-21.74,37.53c-.51,1.91-.16,2.37,1.74,2.35C58.19,109.8,65.09,109.84,72,109.84Zm112.19,0c6.91,0,13.81,0,20.72,0,1.76,0,2.14-.39,1.66-2.21A81.61,81.61,0,0,0,184.89,70.1c-1.31-1.31-1.79-1.16-2.67.38-6.82,12-13.73,23.91-20.6,35.86-1.48,2.57-.92,3.49,2.12,3.5ZM72,146.16c-7,0-14,0-21,0-1.63,0-2,.38-1.58,2.07A81.62,81.62,0,0,0,71.27,186c1.25,1.24,1.71,1,2.5-.37,6.89-12,13.84-24,20.75-36.07,1.4-2.42.83-3.37-2-3.38C85.65,146.14,78.83,146.16,72,146.16Zm112.26,0c-7,0-14,0-21,0-2.45,0-3.07,1.09-1.86,3.2,7,12.1,13.95,24.18,20.87,36.3.84,1.47,1.33,1.47,2.52.29a81.62,81.62,0,0,0,21.72-37.54c.55-2-.06-2.3-1.83-2.29C197.91,146.19,191.09,146.16,184.27,146.16Z"/><path class="cls-1" d="M127.85,146.4a18.41,18.41,0,1,1,18.59-18.09A18.31,18.31,0,0,1,127.85,146.4Zm.23-26.13a7.44,7.44,0,0,0-7.78,7.66,7.74,7.74,0,1,0,15.47.09A7.45,7.45,0,0,0,128.08,120.27Z"/></g></svg>