<svg xmlns="http://www.w3.org/2000/svg" viewBox="0 0 256 256"><defs><style>.cls-1{fill:#efefef;}</style></defs><title>ui_switch</title><g id="Calque_7" data-name="Calque 7"><path class="cls-1" d="M67.71,127.33A57.35,57.35,0,0,1,80.2,92.18c7.47-9.47,15-18.88,21.52-29.1,7-11.07,12.53-22.75,14.28-35.9A49.23,49.23,0,0,0,116.46,15c-.11-.93-.17-1.87-.21-2.81,0-.78-.14-1.71.71-2.09.69-.31,1.36.21,1.91.64q6,4.56,11.95,9.14c15,11.49,23.35,27.52,30.54,44.38,3.53,8.3,6.57,16.73,7.76,25.73a65.14,65.14,0,0,1,.37,9.15c0,1.24-.19,2.75,1.15,3.34s2.45-.61,3.33-1.59c5.44-6.08,8.05-13.3,8.67-21.35.18-2.34.5-4.67.81-7,.14-1.11.43-2.22,1.74-2.51a2.7,2.7,0,0,1,2.8,1.35c1.16,1.57,2.25,3.2,3.29,4.86a135.38,135.38,0,0,1,14.65,30.86c2.92,9,1.23,17.5-2.84,25.66-5.59,11.21-14.08,19.91-24.26,27a72,72,0,0,1-31,12.68,13.93,13.93,0,0,1-7.19-.34c-.88-.34-1.83-.73-2-1.77s.68-1.67,1.44-2.22A68.9,68.9,0,0,0,152.45,157c6.47-7.61,8.42-16.09,5.8-25.84-2.43-9.06-7.41-16.68-12.72-24.15a129.69,129.69,0,0,0-17-19.75,13.58,13.58,0,0,0-1.79-1.52c-2.66-1.76-4.9-.93-5.74,2.14-.61,2.26-1,4.57-1.7,6.82-2.27,8-6.61,14.83-11.64,21.3-4.31,5.52-8.22,11.22-9.83,18.23-2.53,11,.34,20.41,7.67,28.7a69.43,69.43,0,0,0,6.72,6.23c.69.61,1.62,1.29,1.14,2.35s-1.52.73-2.33.63c-20.16-2.52-40-15.33-42.9-38.47C67.85,131.56,67.78,129.46,67.71,127.33Z"/><path class="cls-1" d="M49.67,208.6c-4.89-1.09-9.31-2.07-13.73-3.07-6.25-1.41-9.31-6.4-7.83-12.68,1-4.26,2.21-8.5,2.86-12.81.93-6.14,6.39-9.74,12.87-8.25q20.89,4.82,41.82,9.55l109,24.78c8.3,1.89,16.59,3.84,24.91,5.67,6.08,1.33,10.17,6.16,8.21,13.05-1.24,4.35-2,8.84-3,13.26-1.31,5.71-6,8.84-11.79,7.56-17.85-4-35.67-8-53.5-12.1-9.83-2.23-19.66-4.45-29.47-6.77-2.36-.56-4.49.16-6.67.66q-40.11,9.09-80.23,18.24c-6,1.35-10.77-1.77-12.09-7.74-1-4.58-2-9.16-3.07-13.73-1.33-5.75,1.42-10.52,7.2-12,4.23-1.11,8.52-2,12.78-3C48.42,209.11,48.84,208.91,49.67,208.6Z"/><path class="cls-1" d="M154,185l26.31-6c11-2.49,21.93-5,32.93-7.45,5.57-1.22,10.35,2,11.61,7.52,1.08,4.73,2.15,9.45,3.18,14.19a10.42,10.42,0,0,1-.28,6c-.68,1.86-1.67,2.42-3.71,1.93-10.95-2.59-21.93-5-32.91-7.53l-35.2-8C155.49,185.64,155.07,185.43,154,185Z"/></g></svg>